<svg xmlns="http://www.w3.org/2000/svg" version="1.1" width="636px" height="436px" viewBox="-0.5 -0.5 636 436" style="background-color: rgb(255, 255, 255);"><defs/><g><ellipse cx="311.5" cy="124" rx="60" ry="60" fill="#ffffff" stroke="#3eb0eb" stroke-width="3" pointer-events="none"/><g transform="translate(-0.5 -0.5)"><switch><text x="312" y="129" fill="#3EB0EB" font-family="Helvetica" font-size="16px" text-anchor="middle" font-weight="bold">Hold</text></switch></g><ellipse cx="574" cy="124" rx="60" ry="60" fill="#3eb0eb" stroke="#3eb0eb" stroke-width="3" pointer-events="none"/><g transform="translate(-0.5 -0.5)"><switch><text x="574" y="129" fill="#FFFFFF" font-family="Helvetica" font-size="16px" text-anchor="middle" font-weight="bold">Open</text></switch></g><ellipse cx="61.5" cy="124" rx="60" ry="60" fill="#ffffff" stroke="#3eb0eb" stroke-width="3" pointer-events="none"/><g transform="translate(-0.5 -0.5)"><switch><text x="62" y="129" fill="#3EB0EB" font-family="Helvetica" font-size="16px" text-anchor="middle" font-weight="bold">Open
</text></switch></g><path d="M 371.5 124 L 503.9 124" fill="none" stroke="#3eb0eb" stroke-width="3" stroke-miterlimit="10" pointer-events="none"/><path d="M 510.65 124 L 501.65 128.5 L 503.9 124 L 501.65 119.5 Z" fill="#3eb0eb" stroke="#3eb0eb" stroke-width="3" stroke-miterlimit="10" pointer-events="none"/><rect x="382" y="1.5" width="122" height="60" fill="#ffffff" stroke="#3eb0eb" stroke-width="3" stroke-dasharray="9 9" pointer-events="none"/><g transform="translate(-0.5 -0.5)"><switch><text x="443" y="36" fill="#FFFFFF" font-family="Helvetica" font-size="16px" text-anchor="middle">Transaction ful...</text></switch></g><path d="M 251.5 124 L 121.5 124 L 241.4 124" fill="none" stroke="#3eb0eb" stroke-width="3" stroke-miterlimit="10" pointer-events="none"/><path d="M 248.15 124 L 239.15 128.5 L 241.4 124 L 239.15 119.5 Z" fill="#3eb0eb" stroke="#3eb0eb" stroke-width="3" stroke-miterlimit="10" pointer-events="none"/><path d="M 187 126 L 186.66 62" fill="none" stroke="#3eb0eb" stroke-width="3" stroke-miterlimit="10" stroke-dasharray="9 9" pointer-events="none"/><path d="M 439 124 L 441.7 61.5" fill="none" stroke="#3eb0eb" stroke-width="3" stroke-miterlimit="10" stroke-dasharray="9 9" pointer-events="none"/><rect x="132.5" y="2" width="108" height="60" fill="#ffffff" stroke="#3eb0eb" stroke-width="3" stroke-dasharray="9 9" pointer-events="none"/><g transform="translate(-0.5 -0.5)"><switch><text x="187" y="37" fill="#FFFFFF" font-family="Helvetica" font-size="16px" text-anchor="middle">Transaction c...</text></switch></g><path d="M 311.5 184 L 311.5 303.9" fill="none" stroke="#3eb0eb" stroke-width="3" stroke-miterlimit="10" pointer-events="none"/><path d="M 311.5 310.65 L 307 301.65 L 311.5 303.9 L 316 301.65 Z" fill="#3eb0eb" stroke="#3eb0eb" stroke-width="3" stroke-miterlimit="10" pointer-events="none"/><path d="M 382 244 L 314 244" fill="none" stroke="#3eb0eb" stroke-width="3" stroke-miterlimit="10" stroke-dasharray="9 9" pointer-events="none"/><ellipse cx="311.5" cy="374" rx="60" ry="60" fill="#3eb0eb" stroke="#3eb0eb" stroke-width="3" pointer-events="none"/><g transform="translate(-0.5 -0.5)"><switch><text x="312" y="379" fill="#FFFFFF" font-family="Helvetica" font-size="16px" text-anchor="middle" font-weight="bold">Canceled</text></switch></g><rect x="382" y="204" width="113" height="80" fill="#ffffff" stroke="#3eb0eb" stroke-width="3" stroke-dasharray="9 9" pointer-events="none"/><g transform="translate(-0.5 -0.5)"><switch><text x="439" y="249" fill="#FFFFFF" font-family="Helvetica" font-size="16px" text-anchor="middle">Transaction de...</text></switch></g><ellipse cx="186.5" cy="146" rx="12" ry="12" fill="#73eaa9" stroke="none" pointer-events="none"/><g transform="translate(-0.5 -0.5)"><switch><text x="187" y="151" fill="#FFFFFF" font-family="Helvetica" font-size="16px" text-anchor="middle" font-weight="bold">1
</text></switch></g><ellipse cx="439" cy="146" rx="12" ry="12" fill="#73eaa9" stroke="none" pointer-events="none"/><g transform="translate(-0.5 -0.5)"><switch><text x="439" y="151" fill="#FFFFFF" font-family="Helvetica" font-size="16px" text-anchor="middle" font-weight="bold">2
</text></switch></g><ellipse cx="286" cy="244" rx="12" ry="12" fill="#73eaa9" stroke="none" pointer-events="none"/><g transform="translate(-0.5 -0.5)"><switch><text x="286" y="249" fill="#FFFFFF" font-family="Helvetica" font-size="16px" text-anchor="middle" font-weight="bold">3
</text></switch></g></g><switch><g/><g><text text-anchor="middle" font-size="10px" x="50%" y="100%">Viewer does not support full SVG 1.1</text></g></switch></svg>